<svg xmlns="http://www.w3.org/2000/svg" width="49" height="53" viewBox="0 0 49 53">
  <g id="Group_1089" data-name="Group 1089" transform="translate(-1339 -824)">
    <rect id="Rectangle_1408" data-name="Rectangle 1408" width="49" height="53" transform="translate(1339 824)" fill="none"/>
    <path id="Union_29" data-name="Union 29" d="M-2807.645-1626.278a1.777,1.777,0,0,1-1.777-1.777v-34.137h-3.934a1.777,1.777,0,0,1-1.777-1.777,1.777,1.777,0,0,1,1.777-1.777h10.026v-7.487a1.777,1.777,0,0,1,1.777-1.777h17.513a1.777,1.777,0,0,1,1.777,1.777v7.487h10.026a1.777,1.777,0,0,1,1.777,1.777,1.777,1.777,0,0,1-1.777,1.777h-3.3v34.137a1.777,1.777,0,0,1-1.777,1.777Zm1.777-3.553h26.777v-32.361h-26.777Zm6.091-35.914h13.959v-5.711h-13.959Zm11.548,28.3a1.269,1.269,0,0,1-1.269-1.269v-13.706a1.269,1.269,0,0,1,1.269-1.269h1.015a1.269,1.269,0,0,1,1.269,1.269v13.706a1.269,1.269,0,0,1-1.269,1.269Zm-10.153,0a1.269,1.269,0,0,1-1.269-1.269v-13.706a1.269,1.269,0,0,1,1.269-1.269h1.015a1.269,1.269,0,0,1,1.269,1.269v13.706a1.269,1.269,0,0,1-1.269,1.269Z" transform="translate(4156.507 2501.2)" fill="#fff"/>
  </g>
</svg>
