<svg width="138" height="35" viewBox="0 0 138 35" fill="none" xmlns="http://www.w3.org/2000/svg">
<path d="M1.875 6.25L15 28.75L28.125 6.25H1.875Z" fill="#44A5FF"/>
<path d="M15 6.25V28.75L28.125 6.25H15Z" fill="#2496FF"/>
<path d="M15 8.125L10 16.25H20L15 8.125Z" fill="#5FB3FF"/>
<path d="M10 16.25L15 28.75L20 16.25H10Z" fill="#1D7ED5"/>
<path d="M23.125 7.5L20 16.25L24.9256 11.735L26.5419 8.96438L23.125 7.5Z" fill="#187BC6"/>
<path d="M20 16.25L15 28.75L28.1256 6.25L20 16.25Z" fill="#0E4F79"/>
<path d="M3.45898 8.96438L5.07523 11.7356L10.0009 16.25L6.87586 7.5L3.45898 8.96438Z" fill="#4D99F4"/>
<path d="M15 28.75L10 16.25L1.875 6.25L15 28.75Z" fill="#2160AF"/>
<path d="M1.875 6.25L15 8.125L28.125 6.25H1.875Z" fill="#2872D3"/>
<path d="M15 6.25L19.4575 7.48812L28.125 6.25H15Z" fill="#D87A26"/>
<path d="M15 6.25L19.4575 7.48812L28.125 6.25H15Z" fill="#175495"/>
<path d="M1.875 6.25L10.5425 7.48812L15 6.25H1.875Z" fill="#2165BA"/>
<path d="M19.457 7.48812L25.7077 9.22437L28.1245 6.25L19.457 7.48812Z" fill="#187BC6"/>
<path d="M1.875 6.25L4.29188 9.22437L10.5425 7.48812L1.875 6.25Z" fill="#4D99F4"/>
<path d="M39.7216 26V8.54545H51.0739V11.196H42.8835V15.9347H50.4858V18.5852H42.8835V23.3494H51.142V26H39.7216ZM57.1486 18.3295V26H54.0634V12.9091H57.0122V15.1335H57.1656C57.4668 14.4006 57.9469 13.8182 58.606 13.3864C59.2707 12.9545 60.0918 12.7386 61.069 12.7386C61.9724 12.7386 62.7594 12.9318 63.4298 13.3182C64.106 13.7045 64.6287 14.2642 64.998 14.9972C65.373 15.7301 65.5577 16.6193 65.552 17.6648V26H62.4668V18.142C62.4668 17.267 62.2395 16.5824 61.7849 16.0881C61.3361 15.5937 60.7139 15.3466 59.9185 15.3466C59.3787 15.3466 58.8986 15.4659 58.4781 15.7045C58.0634 15.9375 57.7366 16.2756 57.498 16.7188C57.2651 17.1619 57.1486 17.6989 57.1486 18.3295ZM119.44 26V12.9091H122.525V26H119.44ZM120.991 11.0511C120.502 11.0511 120.082 10.8892 119.73 10.5653C119.377 10.2358 119.201 9.84091 119.201 9.38068C119.201 8.91477 119.377 8.51989 119.73 8.19602C120.082 7.86648 120.502 7.7017 120.991 7.7017C121.485 7.7017 121.906 7.86648 122.252 8.19602C122.605 8.51989 122.781 8.91477 122.781 9.38068C122.781 9.84091 122.605 10.2358 122.252 10.5653C121.906 10.8892 121.485 11.0511 120.991 11.0511ZM129.365 26.2642C128.535 26.2642 127.788 26.1165 127.123 25.821C126.464 25.5199 125.941 25.0767 125.555 24.4915C125.174 23.9062 124.984 23.1847 124.984 22.3267C124.984 21.5881 125.12 20.9773 125.393 20.4943C125.666 20.0114 126.038 19.625 126.51 19.3352C126.981 19.0455 127.512 18.8267 128.103 18.679C128.7 18.5256 129.316 18.4148 129.953 18.3466C130.72 18.267 131.342 18.196 131.819 18.1335C132.297 18.0653 132.643 17.9631 132.859 17.8267C133.081 17.6847 133.191 17.4659 133.191 17.1705V17.1193C133.191 16.4773 133.001 15.9801 132.62 15.6278C132.24 15.2756 131.691 15.0994 130.976 15.0994C130.22 15.0994 129.62 15.2642 129.177 15.5938C128.74 15.9233 128.444 16.3125 128.291 16.7614L125.41 16.3523C125.637 15.5568 126.012 14.892 126.535 14.358C127.058 13.8182 127.697 13.4148 128.453 13.1477C129.209 12.875 130.044 12.7386 130.959 12.7386C131.589 12.7386 132.217 12.8125 132.842 12.9602C133.467 13.108 134.038 13.3523 134.555 13.6932C135.072 14.0284 135.487 14.4858 135.799 15.0653C136.118 15.6449 136.277 16.3693 136.277 17.2386V26H133.311V24.2017H133.209C133.021 24.5653 132.757 24.9062 132.416 25.2244C132.081 25.5369 131.657 25.7898 131.146 25.983C130.64 26.1705 130.047 26.2642 129.365 26.2642ZM130.166 23.9972C130.785 23.9972 131.322 23.875 131.777 23.6307C132.231 23.3807 132.581 23.0511 132.825 22.642C133.075 22.233 133.2 21.7869 133.2 21.304V19.7614C133.103 19.8409 132.939 19.9148 132.706 19.983C132.478 20.0511 132.223 20.1108 131.939 20.1619C131.655 20.2131 131.373 20.2585 131.095 20.2983C130.816 20.3381 130.575 20.3722 130.37 20.4006C129.91 20.4631 129.498 20.5653 129.135 20.7074C128.771 20.8494 128.484 21.0483 128.274 21.304C128.064 21.554 127.959 21.8778 127.959 22.2756C127.959 22.8438 128.166 23.2727 128.581 23.5625C128.995 23.8523 129.524 23.9972 130.166 23.9972Z" fill="#437EF7"/>
<path d="M71.6736 8.54545V26H68.5884V8.54545H71.6736ZM74.7462 26V12.9091H77.8314V26H74.7462ZM76.2973 11.0511C75.8087 11.0511 75.3882 10.8892 75.0359 10.5653C74.6837 10.2358 74.5075 9.84091 74.5075 9.38068C74.5075 8.91477 74.6837 8.51989 75.0359 8.19602C75.3882 7.86648 75.8087 7.7017 76.2973 7.7017C76.7916 7.7017 77.2121 7.86648 77.5587 8.19602C77.9109 8.51989 78.0871 8.91477 78.0871 9.38068C78.0871 9.84091 77.9109 10.2358 77.5587 10.5653C77.2121 10.8892 76.7916 11.0511 76.2973 11.0511ZM86.5972 31.1818C85.4892 31.1818 84.5375 31.0313 83.742 30.7301C82.9466 30.4347 82.3074 30.0369 81.8244 29.5369C81.3415 29.0369 81.0062 28.483 80.8187 27.875L83.5972 27.2017C83.7222 27.4574 83.904 27.7102 84.1426 27.9602C84.3812 28.2159 84.7023 28.4261 85.1057 28.5909C85.5148 28.7614 86.029 28.8466 86.6483 28.8466C87.5233 28.8466 88.2477 28.6335 88.8216 28.2074C89.3955 27.7869 89.6824 27.0938 89.6824 26.1278V23.6477H89.529C89.3699 23.9659 89.1369 24.2926 88.8301 24.6278C88.529 24.9631 88.1284 25.2443 87.6284 25.4716C87.1341 25.6989 86.5119 25.8125 85.7619 25.8125C84.7562 25.8125 83.8443 25.5767 83.0261 25.1051C82.2136 24.6278 81.5659 23.9176 81.083 22.9744C80.6057 22.0256 80.367 20.8381 80.367 19.4119C80.367 17.9744 80.6057 16.7614 81.083 15.7727C81.5659 14.7784 82.2165 14.0256 83.0347 13.5142C83.8528 12.9972 84.7648 12.7386 85.7705 12.7386C86.5375 12.7386 87.1682 12.8693 87.6625 13.1307C88.1625 13.3864 88.5602 13.696 88.8557 14.0597C89.1511 14.4176 89.3756 14.7557 89.529 15.0739H89.6994V12.9091H92.742V26.2131C92.742 27.3324 92.475 28.2585 91.9409 28.9915C91.4068 29.7244 90.6767 30.2727 89.7506 30.6364C88.8244 31 87.7733 31.1818 86.5972 31.1818ZM86.6227 23.392C87.2761 23.392 87.833 23.233 88.2932 22.9148C88.7534 22.5966 89.1028 22.1392 89.3415 21.5426C89.5801 20.946 89.6994 20.2301 89.6994 19.3949C89.6994 18.571 89.5801 17.8494 89.3415 17.2301C89.1085 16.6108 88.7619 16.1307 88.3017 15.7898C87.8472 15.4432 87.2875 15.2699 86.6227 15.2699C85.9352 15.2699 85.3614 15.4489 84.9011 15.8068C84.4409 16.1648 84.0943 16.6562 83.8614 17.2812C83.6284 17.9006 83.5119 18.6051 83.5119 19.3949C83.5119 20.196 83.6284 20.8977 83.8614 21.5C84.1 22.0966 84.4494 22.5625 84.9097 22.8977C85.3756 23.2273 85.9466 23.392 86.6227 23.392ZM98.8892 18.3295V26H95.804V8.54545H98.821V15.1335H98.9744C99.2813 14.3949 99.7557 13.8125 100.398 13.3864C101.045 12.9545 101.869 12.7386 102.869 12.7386C103.778 12.7386 104.571 12.929 105.247 13.3097C105.923 13.6903 106.446 14.2472 106.815 14.9801C107.19 15.7131 107.378 16.608 107.378 17.6648V26H104.293V18.142C104.293 17.2614 104.065 16.5767 103.611 16.0881C103.162 15.5937 102.531 15.3466 101.719 15.3466C101.173 15.3466 100.685 15.4659 100.253 15.7045C99.8267 15.9375 99.4915 16.2756 99.2472 16.7188C99.0085 17.1619 98.8892 17.6989 98.8892 18.3295ZM116.96 12.9091V15.2955H109.434V12.9091H116.96ZM111.292 9.77273H114.377V22.0625C114.377 22.4773 114.44 22.7955 114.565 23.017C114.695 23.233 114.866 23.3807 115.076 23.4602C115.286 23.5398 115.519 23.5795 115.775 23.5795C115.968 23.5795 116.144 23.5653 116.303 23.5369C116.468 23.5085 116.593 23.483 116.678 23.4602L117.198 25.8722C117.034 25.929 116.798 25.9915 116.491 26.0597C116.19 26.1278 115.82 26.1676 115.383 26.179C114.61 26.2017 113.914 26.0852 113.295 25.8295C112.676 25.5682 112.184 25.1648 111.82 24.6193C111.463 24.0739 111.286 23.392 111.292 22.5739V9.77273Z" fill="#149D52"/>
</svg>
